<?xml version="1.0" encoding="iso-8859-1"?>
<!-- Generator: Adobe Illustrator 18.0.0, SVG Export Plug-In . SVG Version: 6.00 Build 0)  -->
<!DOCTYPE svg PUBLIC "-//W3C//DTD SVG 1.1//EN" "http://www.w3.org/Graphics/SVG/1.1/DTD/svg11.dtd">
<svg version="1.1" id="Capa_1" xmlns="http://www.w3.org/2000/svg" xmlns:xlink="http://www.w3.org/1999/xlink" x="0px" y="0px"
	 viewBox="0 0 384.981 384.981" style="enable-background:new 0 0 384.981 384.981;" xml:space="preserve" fill="green">
<g>
	<path d="M192.491,197.204c24.125,0,80.846-29.034,80.846-98.604c0-9.705-0.236-19.079-1.036-27.938
		c-1.313-17.429-4.883-32.876-13.771-44.714C247.129,9.837,227.18,0,192.491,0c-34.682,0-54.63,9.834-66.032,25.939
		c-8.893,11.841-12.465,27.292-13.778,44.727c-0.8,8.857-1.036,18.231-1.036,27.934C111.645,168.17,168.366,197.204,192.491,197.204
		z M218.88,36.123c-2.354,5.951-3.534,8.927-5.89,14.877c-15.209-4.297-25.791-4.297-41,0c-2.356-5.95-3.534-8.926-5.891-14.877
		C185.12,30.365,199.862,30.366,218.88,36.123z M123.673,83.517c0.931,2.038,4.888,9.87,11.013,10.604
		c7.041,0.845,18.728-24.935,57.805-24.998c39.076,0.063,50.764,25.843,57.805,24.998c6.125-0.735,10.082-8.567,11.013-10.604
		c0.19,4.992,0.259,10.045,0.259,15.084c0,34.006-15.016,55.076-27.612,66.763c-15.872,14.727-33.494,20.072-41.465,20.072
		c-7.972,0-25.593-5.345-41.465-20.072c-12.596-11.687-27.612-32.757-27.612-66.763C123.414,93.562,123.483,88.509,123.673,83.517z"
		/>
	<path d="M342.583,298.327c-4.127-25.664-12.624-58.724-29.668-70.474c-11.639-8.024-52.247-29.72-69.588-38.984l-0.293-0.156
		c-1.983-1.059-4.402-0.847-6.17,0.541c-9.083,7.131-19.034,11.937-29.574,14.284c-1.862,0.415-3.39,1.738-4.067,3.521
		l-5.775,15.223h-9.915l-5.775-15.223c-0.677-1.783-2.205-3.106-4.067-3.521c-10.54-2.347-20.49-7.153-29.574-14.284
		c-1.768-1.388-4.188-1.601-6.17-0.541c-17.134,9.156-58.238,31.294-69.831,39.106c-19.62,13.218-28.198,61.053-29.718,70.508
		c-0.151,0.938-0.064,1.897,0.253,2.793c0.475,1.341,8.879,23.076,54.839,37.005v4.627c0,2.826,2.293,5.118,5.119,5.118
		l63.313,0.052c-1.218,6.975-3.82,18.461-9.032,29.811c-0.729,1.582-0.602,3.427,0.343,4.895c0.941,1.47,2.565,2.355,4.308,2.355
		h61.895c1.743,0,3.368-0.886,4.309-2.355c0.94-1.468,1.069-3.313,0.345-4.895c-5.21-11.349-7.818-22.836-9.038-29.811l63.319-0.052
		c2.825,0,5.119-2.292,5.119-5.118v-4.627c45.96-13.929,54.364-35.664,54.839-37.005
		C342.647,300.224,342.734,299.264,342.583,298.327z M270.889,333.688h-8.946v-1.766c0-2.613-2.119-4.733-4.733-4.733
		c-2.615,0-4.732,2.119-4.732,4.733v1.766h-5.971v-1.766c0-2.613-2.117-4.733-4.732-4.733c-2.611,0-4.732,2.119-4.732,4.733v1.766
		H114.088v-97.226h156.801V333.688z"/>
	<path d="M172.417,291.109c-3.612,0-7.004,1.409-9.553,3.966c-3.48,3.491-4.778,8.6-3.388,13.334
		c0.081,0.275,0.301,0.488,0.58,0.559c0.278,0.069,0.573-0.011,0.776-0.214l8.494-8.52c0.51,0.206,1.795,0.912,4.171,3.282
		c2.425,2.417,3.116,3.703,3.31,4.148l-8.509,8.535c-0.203,0.203-0.283,0.499-0.211,0.776c0.072,0.278,0.285,0.498,0.561,0.578
		c1.225,0.356,2.494,0.536,3.773,0.536c3.611,0,7.003-1.408,9.551-3.965c3.999-4.012,4.936-9.929,2.833-14.844l7.945-7.945
		l3.361,3.361l-2.292,2.292c-0.498,0.499-0.773,1.161-0.773,1.866s0.275,1.368,0.773,1.866l16.189,16.189
		c0.498,0.498,1.161,0.773,1.866,0.773c0.705,0,1.368-0.275,1.867-0.773l8.77-8.77c0.499-0.499,0.773-1.162,0.773-1.867
		c0-0.705-0.275-1.368-0.773-1.867l-16.188-16.189c-0.5-0.498-1.163-0.773-1.868-0.773c-0.705,0-1.367,0.275-1.866,0.773
		l-2.292,2.292l-3.361-3.361l10.304-10.304c1.661,0.714,3.463,1.096,5.325,1.096c3.612,0,7.004-1.408,9.553-3.965
		c3.479-3.491,4.778-8.6,3.39-13.335c-0.081-0.276-0.301-0.488-0.579-0.559c-0.278-0.071-0.573,0.011-0.776,0.214l-8.496,8.522
		c-0.51-0.207-1.794-0.912-4.171-3.282c-2.425-2.418-3.116-3.704-3.31-4.149l8.509-8.535c0.203-0.203,0.283-0.499,0.211-0.776
		c-0.072-0.278-0.285-0.498-0.561-0.578c-1.225-0.355-2.494-0.536-3.771-0.536c-3.612,0-7.004,1.409-9.552,3.966
		c-3.999,4.012-4.936,9.929-2.833,14.844l-10.31,10.31l-10.555-10.556c-0.008-0.014-0.009-0.031-0.017-0.045l-4.821-8.266
		c-0.083-0.143-0.197-0.265-0.332-0.359l-8.134-5.643c-0.451-0.313-1.058-0.257-1.444,0.129l-3.623,3.623
		c-0.387,0.387-0.441,0.995-0.129,1.445l5.645,8.133c0.094,0.135,0.217,0.249,0.359,0.332l8.264,4.82
		c0.016,0.009,0.033,0.012,0.049,0.021l10.552,10.553l-7.939,7.939C176.081,291.491,174.279,291.109,172.417,291.109z
		 M199.577,298.674c0.577-0.576,1.513-0.576,2.088,0.001l10.388,10.387c0.576,0.577,0.577,1.512,0,2.089
		c-0.577,0.576-1.513,0.576-2.089,0l-10.387-10.387C198.999,300.186,198.999,299.251,199.577,298.674z M204.276,293.976
		c0.577-0.578,1.512-0.578,2.09,0l10.386,10.386c0.577,0.576,0.577,1.512,0,2.089c-0.575,0.576-1.512,0.576-2.089-0.001
		l-10.387-10.385C203.7,295.486,203.7,294.552,204.276,293.976z"/>
</g>
<g>
</g>
<g>
</g>
<g>
</g>
<g>
</g>
<g>
</g>
<g>
</g>
<g>
</g>
<g>
</g>
<g>
</g>
<g>
</g>
<g>
</g>
<g>
</g>
<g>
</g>
<g>
</g>
<g>
</g>
</svg>
